<svg width="103" height="103" viewBox="0 0 103 103" fill="none" xmlns="http://www.w3.org/2000/svg">
<g clip-path="url(#clip0_1_202)">
<path d="M89.9992 23.6268V88.1266C89.9992 93.8535 85.3304 98.5136 79.5925 98.5136H23.9204C18.1825 98.5136 13.5137 93.8535 13.5137 88.1266V13.387C13.5137 7.66005 18.1825 2.99994 23.9204 2.99994H69.333C70.5966 2.99994 71.7836 3.49036 72.677 4.3823L88.614 20.2915C89.5073 21.1813 89.9992 22.3654 89.9992 23.6268Z" fill="#F3EEE9"/>
<path d="M89.9996 23.6268V88.1266C89.9996 93.8535 85.3308 98.5136 79.5929 98.5136H51.7568V2.99994H69.3334C70.5969 2.99994 71.784 3.49036 72.6774 4.3823L88.6143 20.2915C89.5077 21.1813 89.9996 22.3654 89.9996 23.6268Z" fill="#E9DFDA"/>
<path d="M89.9993 23.6268H69.333V2.99994C70.5966 2.99994 71.7837 3.49036 72.6771 4.3823L88.614 20.2915C89.5074 21.1813 89.9993 22.3654 89.9993 23.6268Z" fill="#DAD0CB"/>
<path d="M70.8553 74.7644C70.8553 76.3085 69.6019 77.5626 68.0571 77.5626H35.4574C33.9133 77.5626 32.6592 76.3085 32.6592 74.7644C32.6592 73.2195 33.9133 71.9661 35.4574 71.9661H68.0571C69.6019 71.9661 70.8553 73.2195 70.8553 74.7644Z" fill="#0051BD"/>
<path d="M63.3937 84.0919C63.3937 85.636 62.1403 86.8901 60.5955 86.8901H42.9198C41.3757 86.8901 40.1216 85.636 40.1216 84.0919C40.1216 82.547 41.3757 81.2936 42.9198 81.2936H60.5955C62.1403 81.2936 63.3937 82.547 63.3937 84.0919Z" fill="#0051BD"/>
<path d="M63.3936 84.0919C63.3936 85.636 62.1402 86.8901 60.5954 86.8901H51.7568V81.2936H60.5954C62.1402 81.2936 63.3936 82.547 63.3936 84.0919Z" fill="#00347B"/>
<path d="M70.8556 74.7644C70.8556 76.3085 69.6023 77.5626 68.0574 77.5626H51.7568V71.9661H68.0574C69.6023 71.9661 70.8556 73.2195 70.8556 74.7644Z" fill="#00347B"/>
<path d="M51.7586 22.0522H51.7564C39.5505 22.0544 29.6226 31.9824 29.6226 44.1869C29.6226 56.3928 39.5505 66.3207 51.7564 66.3229H51.7586C63.9624 66.3229 73.8925 56.3928 73.8925 44.1869C73.8925 31.9824 63.9624 22.0522 51.7586 22.0522Z" fill="#FFDA00"/>
<path d="M73.8929 44.1869C73.8929 56.3928 63.9628 66.3229 51.759 66.3229H51.7568V22.0522H51.759C63.9628 22.0522 73.8929 31.9824 73.8929 44.1869Z" fill="#FFBF00"/>
<path d="M60.3954 45.8658C60.3954 47.4121 59.142 48.664 57.5971 48.664H53.2919C52.7505 48.664 52.2338 48.5649 51.7587 48.382C50.1242 47.7626 48.9604 46.1828 48.9604 44.3318V36.195C48.9604 34.6502 50.2116 33.3968 51.7587 33.3968C53.3028 33.3968 54.557 34.6502 54.557 36.195V43.0675H57.5971C59.142 43.0675 60.3954 44.3209 60.3954 45.8658Z" fill="white"/>
<path d="M60.395 45.8658C60.395 47.4121 59.1416 48.664 57.5967 48.664H53.2915C52.7501 48.664 52.2334 48.5649 51.7583 48.382V33.3968C53.3024 33.3968 54.5566 34.6502 54.5566 36.195V43.0675H57.5967C59.1416 43.0675 60.395 44.3209 60.395 45.8658Z" fill="#F3EEE9"/>
</g>
<defs>
<clipPath id="clip0_1_202">
<rect width="95.5137" height="95.5137" fill="white" transform="translate(4 3)"/>
</clipPath>
</defs>
</svg>
