<svg width="103" height="103" viewBox="0 0 103 103" fill="none" xmlns="http://www.w3.org/2000/svg">
<g clip-path="url(#clip0_1_253)">
<g clip-path="url(#clip1_1_253)">
<g clip-path="url(#clip2_1_253)">
<path d="M84.6757 6.54407H18.398C15.1701 6.54407 12.5879 9.12632 12.5879 12.3541V93.4798C12.5879 96.7076 15.1701 99.2899 18.398 99.2899H84.891C88.1188 99.2899 90.701 96.7076 90.701 93.4798V12.3541C90.4858 9.12632 87.9035 6.54407 84.6757 6.54407Z" fill="#FFD15C"/>
<path d="M82.9546 14.291H20.335V91.5433H82.9546V14.291Z" fill="white"/>
<path d="M75.8534 70.2396H27.0059V74.3283H75.8534V70.2396Z" fill="#E8EAE9"/>
<path d="M75.8534 80.5687H27.0059V84.6574H75.8534V80.5687Z" fill="#E8EAE9"/>
<path d="M64.6639 4.39232H59.9297C59.9297 -0.341877 56.0564 -4 51.5374 -4C47.0185 -4 43.1451 -0.341877 43.1451 4.39232H38.4111C36.0441 4.39232 34.1074 6.32901 34.1074 8.69601V19.025H68.7526V8.69601C68.9678 6.11375 67.0311 4.39232 64.6639 4.39232ZM51.5376 6.54426C50.2465 6.54426 49.3857 5.68344 49.3857 4.39232C49.3857 3.10119 50.4616 2.24038 51.5376 2.24038C52.8288 2.24038 53.6896 3.31625 53.6896 4.39232C53.6896 5.46839 52.8288 6.54426 51.5376 6.54426Z" fill="#344A5E"/>
<path d="M53.0432 57.7587C52.6129 57.7587 52.1824 57.5435 51.9673 57.3284L35.1827 37.316C34.7524 36.8857 34.7524 36.4552 34.9674 35.8096C35.1827 35.3793 35.613 34.9488 36.0433 34.9488L66.1697 29.7845C66.6 29.7845 67.2456 29.9997 67.6761 30.4301C68.1064 30.8604 68.1064 31.5059 67.6761 31.9364L54.1193 57.1134C54.1193 57.5437 53.6887 57.7587 53.0432 57.7587C53.2584 57.7587 53.2584 57.7587 53.0432 57.7587ZM39.0561 37.5312L52.8281 53.8856L64.018 33.2276L39.0561 37.5312Z" fill="#344A5E"/>
<path d="M66.6011 37.9616C70.2853 37.9616 73.2719 34.9749 73.2719 31.2907C73.2719 27.6065 70.2853 24.6198 66.6011 24.6198C62.9168 24.6198 59.9302 27.6065 59.9302 31.2907C59.9302 34.9749 62.9168 37.9616 66.6011 37.9616Z" fill="#66C6B9"/>
<path d="M65.6278 26.8239C65.1236 26.3197 63.9655 26.6603 63.0412 27.5846C62.1168 28.509 61.7762 29.6671 62.2804 30.1713C62.7846 30.6755 63.9427 30.3349 64.8671 29.4105C65.7914 28.4862 66.132 27.3281 65.6278 26.8239Z" fill="white"/>
<path d="M36.4751 43.126C40.1593 43.126 43.146 40.1394 43.146 36.4551C43.146 32.7709 40.1593 29.7842 36.4751 29.7842C32.7909 29.7842 29.8042 32.7709 29.8042 36.4551C29.8042 40.1394 32.7909 43.126 36.4751 43.126Z" fill="#8AD7F8"/>
<path d="M35.4457 32.2417C34.9415 31.7375 33.7834 32.0781 32.859 33.0025C31.9347 33.9268 31.5941 35.0849 32.0983 35.5891C32.6025 36.0933 33.7606 35.7527 34.6849 34.8284C35.6093 33.904 35.9499 32.7459 35.4457 32.2417Z" fill="white"/>
<path d="M53.0434 63.1385C56.7277 63.1385 59.7143 60.1518 59.7143 56.4676C59.7143 52.7834 56.7277 49.7967 53.0434 49.7967C49.3592 49.7967 46.3726 52.7834 46.3726 56.4676C46.3726 60.1518 49.3592 63.1385 53.0434 63.1385Z" fill="#F3705A"/>
<path d="M52.1083 52.0263C51.6041 51.5221 50.446 51.8627 49.5216 52.7871C48.5973 53.7114 48.2567 54.8695 48.7609 55.3737C49.2651 55.8779 50.4232 55.5373 51.3475 54.613C52.2719 53.6886 52.6125 52.5305 52.1083 52.0263Z" fill="white"/>
</g>
</g>
</g>
<defs>
<clipPath id="clip0_1_253">
<rect width="102.997" height="102.997" fill="white"/>
</clipPath>
<clipPath id="clip1_1_253">
<rect width="103" height="103" fill="white" transform="translate(0 -3.99994)"/>
</clipPath>
<clipPath id="clip2_1_253">
<rect width="103.29" height="103.29" fill="white" transform="translate(0 -3.99994)"/>
</clipPath>
</defs>
</svg>
