<svg width="103" height="103" viewBox="0 0 103 103" fill="none" xmlns="http://www.w3.org/2000/svg">
<g clip-path="url(#clip0_1_174)">
<g clip-path="url(#clip1_1_174)">
<path d="M14.7994 66.5418L15.1349 79.0686L0 94.2037L4.39688 98.6006L23.4481 84.1398L43.9515 59.0459L14.7994 66.5418Z" fill="#4E5167"/>
<path d="M4.39697 98.6005L8.79386 102.997L23.929 87.8624L36.4723 88.1988L43.9713 59.0408L43.9516 59.0458L4.39697 98.6005Z" fill="#383D55"/>
<path d="M81.2846 0L14.7969 66.5413H14.7987H36.4715L70.0439 41.8834L92.1406 10.8557L81.2846 0Z" fill="#FAF0DD"/>
<path d="M36.4712 66.5413V88.1984V88.1994L102.996 21.7117L92.1403 10.8557L36.4712 66.5413Z" fill="#E7D0A8"/>
<path d="M80.5271 72.208C73.1634 72.208 66.994 77.4061 65.4873 84.3248L80.5271 87.6026L84.4396 78.9199L80.5271 72.208Z" fill="#F74B22"/>
<path d="M95.5666 84.3248C94.0599 77.4061 87.8905 72.208 80.5269 72.208V87.6026L95.5666 84.3248Z" fill="#D01A13"/>
<path d="M65.4873 90.88C66.994 97.7987 73.1634 102.997 80.5271 102.997L83.9081 97.0588L80.5271 88.2962L65.4873 90.88Z" fill="#F74B22"/>
<path d="M80.5269 102.997C87.8905 102.997 94.0599 97.7987 95.5666 90.88L80.5269 88.2962V102.997Z" fill="#D01A13"/>
<path d="M80.5272 84.3248H65.4875C65.2573 85.3817 65.1328 86.4776 65.1328 87.6026C65.1328 88.7275 65.2573 89.8234 65.4875 90.8804H80.5272L84.4397 87.6026L80.5272 84.3248Z" fill="#F1F3F8"/>
<path d="M95.5666 84.3248H80.5269V90.8802H95.5666C95.7968 89.8232 95.9215 88.7273 95.9215 87.6024C95.9215 86.4774 95.7968 85.3817 95.5666 84.3248Z" fill="#DDE2ED"/>
</g>
</g>
<defs>
<clipPath id="clip0_1_174">
<rect width="102.997" height="102.997" fill="white"/>
</clipPath>
<clipPath id="clip1_1_174">
<rect width="102.997" height="102.997" fill="white"/>
</clipPath>
</defs>
</svg>
