<svg width="103" height="103" viewBox="0 0 103 103" fill="none" xmlns="http://www.w3.org/2000/svg">
<g clip-path="url(#clip0_1_236)">
<g clip-path="url(#clip1_1_236)">
<path d="M14.6521 37.6898C8.29038 37.6898 3.08496 42.8948 3.08496 49.2569C3.08496 55.6187 8.29038 60.8241 14.6521 60.8241C21.0139 60.8241 26.2193 55.6187 26.2193 49.2569C26.2193 42.8948 21.0139 37.6898 14.6521 37.6898Z" fill="#FFD9B3"/>
<path d="M14.6517 60.8242C6.6704 60.8242 0 67.3018 0 75.2831V81.0667C0 82.6859 1.2722 83.9585 2.89179 83.9585H26.2189C27.8385 83.9585 29.1107 82.6859 29.1107 81.0667V75.2831C29.1107 67.3018 22.6331 60.8242 14.6517 60.8242Z" fill="#664D99"/>
<path d="M14.6514 60.8241V37.6898C21.0131 37.6898 26.2185 42.8948 26.2185 49.2569C26.2185 55.6187 21.0131 60.8241 14.6514 60.8241Z" fill="#FFBB99"/>
<path d="M29.1103 75.2831V81.0667C29.1103 82.6859 27.8381 83.9585 26.2185 83.9585H14.6514V60.8242C22.6327 60.8242 29.1103 67.3018 29.1103 75.2831Z" fill="#4D4573"/>
<path d="M49.3541 49.2569H43.5705C41.9509 49.2569 40.6787 50.5291 40.6787 52.1487V81.0666C40.6787 82.6858 41.9509 83.9584 43.5705 83.9584H49.3541C50.9737 83.9584 52.2459 82.6858 52.2459 81.0666V52.1487C52.2459 50.5291 50.9737 49.2569 49.3541 49.2569Z" fill="#664D99"/>
<path d="M72.4884 31.9061H66.7048C65.0852 31.9061 63.813 33.1783 63.813 34.7979V81.0666C63.813 82.6858 65.0852 83.9584 66.7048 83.9584H72.4884C74.108 83.9584 75.3802 82.6858 75.3802 81.0666V34.7979C75.3802 33.1783 74.108 31.9061 72.4884 31.9061Z" fill="#664D99"/>
<path d="M95.6231 14.5552H89.8395C88.2199 14.5552 86.9478 15.8274 86.9478 17.447V81.0664C86.9478 82.6856 88.2199 83.9582 89.8395 83.9582H95.6231C97.2427 83.9582 98.5149 82.6856 98.5149 81.0664V17.447C98.5149 15.8274 97.2427 14.5552 95.6231 14.5552Z" fill="#664D99"/>
<path d="M52.245 52.1487V81.0666C52.245 82.6858 50.9728 83.9584 49.3532 83.9584H46.4614V49.2569H49.3532C50.9728 49.2569 52.245 50.5291 52.245 52.1487Z" fill="#4D4573"/>
<path d="M75.3793 34.7979V81.0666C75.3793 82.6858 74.1071 83.9584 72.4875 83.9584H69.5957V31.9061H72.4875C74.1071 31.9061 75.3793 33.1783 75.3793 34.7979Z" fill="#4D4573"/>
<path d="M98.5131 17.447V81.0664C98.5131 82.6856 97.2409 83.9582 95.6213 83.9582H92.7295V14.5552H95.6213C97.2409 14.5552 98.5131 15.8274 98.5131 17.447Z" fill="#4D4573"/>
</g>
</g>
<defs>
<clipPath id="clip0_1_236">
<rect width="98.5137" height="98.5137" fill="white"/>
</clipPath>
<clipPath id="clip1_1_236">
<rect width="98.5137" height="98.5137" fill="white"/>
</clipPath>
</defs>
</svg>
