<svg width="103" height="103" viewBox="0 0 103 103" fill="none" xmlns="http://www.w3.org/2000/svg">
<g clip-path="url(#clip0_1_217)">
<g clip-path="url(#clip1_1_217)">
<path d="M63.551 19.3645C62.8815 15.9859 60.8886 13.0745 57.9616 11.1439C54.9879 9.19769 51.3135 8.49708 47.8571 9.2444C44.0426 10.0696 41.0845 12.1247 39.9479 13.0122C37.7526 12.981 36.4604 13.9463 35.7442 14.8026C33.7669 17.2003 33.7358 21.84 35.6197 28.5503C35.0592 29.3132 34.7478 30.263 34.7478 31.2594C34.7478 33.081 35.8065 34.6535 37.3167 35.323C38.8114 40.6166 43.4199 45.8011 49.0404 45.8011C54.225 45.8011 59.067 40.5854 60.7174 35.4008C62.321 34.7936 63.4576 33.1589 63.4576 31.2594C63.4576 30.4031 63.224 29.5935 62.8037 28.8929C63.8468 25.4676 64.1271 22.2603 63.551 19.3645ZM59.394 32.6606C59.3628 32.6606 59.3473 32.6762 59.3161 32.6762C59.2227 32.6918 59.1449 32.7229 59.0515 32.7541C58.958 32.7852 58.8491 32.8163 58.7556 32.863C58.6934 32.8942 58.6311 32.9565 58.5688 33.0187C58.4754 33.081 58.3975 33.1433 58.3353 33.2211C58.273 33.299 58.2419 33.3768 58.1951 33.4391C58.1484 33.5481 58.0862 33.6415 58.055 33.7505C58.055 33.7661 58.0395 33.7816 58.0395 33.8128C56.9963 38.0476 52.9327 42.7807 49.0404 42.7807C44.6966 42.7807 40.9911 38.141 40.0569 33.8283C40.0569 33.8283 40.0413 33.8128 40.0413 33.7972C40.0102 33.6882 39.9479 33.5948 39.9012 33.4858C39.8701 33.408 39.8389 33.3301 39.7922 33.2678C39.73 33.19 39.6521 33.1277 39.5898 33.0654C39.512 33.0032 39.4497 32.9253 39.3719 32.8786C39.3096 32.8319 39.2162 32.8163 39.1383 32.7852C39.0293 32.7385 38.9359 32.6918 38.8269 32.6762C38.8114 32.6762 38.7958 32.6606 38.7802 32.6606C38.2197 32.5828 37.7682 31.96 37.7682 31.2594C37.7682 30.7923 37.955 30.3564 38.2664 30.0917C38.4533 29.9204 38.6712 29.827 38.9359 29.827C39.1227 29.827 39.3096 29.7959 39.4964 29.718C39.5431 29.7025 39.5898 29.6558 39.6365 29.6402C39.7455 29.5779 39.8545 29.5001 39.9635 29.4222C39.9946 29.3755 40.0258 29.3288 40.0569 29.2977C40.1503 29.1887 40.2282 29.0797 40.2904 28.9551C40.306 28.9084 40.3216 28.8617 40.3372 28.8306C40.3683 28.7372 40.415 28.6593 40.4306 28.5659C40.6797 26.9934 41.0378 25.8569 41.3336 25.1407C46.1756 28.3168 51.4848 26.3239 54.225 24.3933C56.0622 24.876 56.934 25.779 56.9963 25.8569C57.5101 26.4018 57.8993 27.3515 58.0862 28.5815C58.1017 28.6126 58.1173 28.6282 58.1329 28.6593C58.1484 28.7527 58.1796 28.815 58.2107 28.8929C58.2419 29.0019 58.2886 29.0953 58.3508 29.1731C58.3975 29.2354 58.4443 29.2977 58.491 29.3599C58.5688 29.4378 58.6467 29.5001 58.7401 29.5623C58.8023 29.6091 58.8646 29.6402 58.9425 29.6713C59.0359 29.7336 59.1449 29.7647 59.2694 29.7803C59.3161 29.7959 59.3473 29.827 59.4096 29.827C59.5341 29.8426 59.6742 29.8893 59.7988 29.9827C60.188 30.2163 60.4527 30.7145 60.4527 31.2594C60.4527 31.9912 59.9701 32.6139 59.394 32.6606ZM60.4683 25.8724C60.1413 25.0628 59.7365 24.3622 59.2383 23.8328C59.067 23.6304 57.479 21.8867 54.1471 21.2795C54.1316 21.2795 54.116 21.295 54.1004 21.295C53.9759 21.2639 53.8513 21.2795 53.7268 21.295C53.6645 21.3106 53.5866 21.295 53.5244 21.3106C53.4154 21.3418 53.322 21.404 53.213 21.4507C53.1351 21.4819 53.0573 21.513 52.995 21.5597C52.9794 21.5753 52.9483 21.5909 52.9327 21.6064C52.6836 21.7933 47.0164 26.2928 42.0031 21.8555C41.4893 21.3885 40.7264 21.3418 40.1503 21.731C39.1072 22.4316 38.4221 24.0508 37.9862 25.6077C36.9898 21.2795 37.0053 18.0255 38.0796 16.7177C38.3754 16.3751 38.9048 15.9081 40.306 16.0482C40.7264 16.0949 41.1312 15.9548 41.4581 15.6745C41.4737 15.659 44.4786 13.0589 48.4955 12.2026C51.1578 11.6265 54.007 12.1559 56.3113 13.6661C58.5532 15.1452 60.079 17.3871 60.5928 19.9561C60.9509 21.7621 60.8886 23.7394 60.4683 25.8724Z" fill="black"/>
<path d="M60.4678 25.8725C60.1408 25.0629 59.736 24.3623 59.2378 23.833C59.0666 23.6306 57.4785 21.8868 54.1467 21.2796C54.1311 21.2796 54.1155 21.2952 54.1 21.2952C53.9754 21.264 53.8508 21.2796 53.7263 21.2952C53.664 21.3107 53.5862 21.2952 53.5239 21.3107C53.4149 21.3419 53.3215 21.4041 53.2125 21.4509C53.1347 21.482 53.0568 21.5131 52.9945 21.5598C52.979 21.5754 52.9478 21.591 52.9323 21.6065C52.6831 21.7934 47.0159 26.2929 42.0026 21.8557C41.4888 21.3886 40.7259 21.3419 40.1499 21.7311C39.1067 22.4317 38.4217 24.0509 37.9857 25.6079C36.9893 21.2796 37.0049 18.0256 38.0791 16.7178C38.375 16.3753 38.9043 15.9082 40.3055 16.0483C40.7259 16.095 41.1307 15.9549 41.4577 15.6746C41.4732 15.6591 44.4781 13.059 48.495 12.2027C51.1574 11.6266 54.0065 12.156 56.3108 13.6662C58.5528 15.1453 60.0786 17.3873 60.5924 19.9562C60.9504 21.7622 60.8882 23.7395 60.4678 25.8725Z" fill="#617586"/>
<path d="M60.4521 31.2596C60.4521 31.9914 59.9694 32.6142 59.3933 32.6609C59.3622 32.6609 59.3466 32.6764 59.3155 32.6764C59.2221 32.692 59.1442 32.7231 59.0508 32.7543C58.9574 32.7854 58.8484 32.8165 58.755 32.8633C58.6927 32.8944 58.6304 32.9567 58.5682 33.019C58.4748 33.0812 58.3969 33.1435 58.3346 33.2214C58.2724 33.2992 58.2412 33.377 58.1945 33.4393C58.1478 33.5483 58.0855 33.6417 58.0544 33.7507C58.0544 33.7663 58.0388 33.7818 58.0388 33.813C56.9957 38.0478 52.9321 42.7809 49.0398 42.7809C44.6959 42.7809 40.9904 38.1413 40.0563 33.8286C40.0563 33.8286 40.0407 33.813 40.0407 33.7974C40.0096 33.6884 39.9473 33.595 39.9006 33.486C39.8694 33.4082 39.8383 33.3303 39.7916 33.2681C39.7293 33.1902 39.6515 33.1279 39.5892 33.0657C39.5113 33.0034 39.4491 32.9255 39.3712 32.8788C39.3089 32.8321 39.2155 32.8166 39.1377 32.7854C39.0287 32.7387 38.9353 32.692 38.8263 32.6764C38.8107 32.6764 38.7952 32.6609 38.7796 32.6609C38.2191 32.583 37.7676 31.9602 37.7676 31.2596C37.7676 30.7925 37.9544 30.3566 38.2658 30.0919C38.4526 29.9207 38.6706 29.8272 38.9353 29.8272C39.1221 29.8272 39.3089 29.7961 39.4958 29.7183C39.5425 29.7027 39.5892 29.656 39.6359 29.6404C39.7449 29.5781 39.8539 29.5003 39.9629 29.4224C39.994 29.3757 40.0251 29.329 40.0563 29.2979C40.1497 29.1889 40.2275 29.0799 40.2898 28.9554C40.3054 28.9087 40.3209 28.8619 40.3365 28.8308C40.3677 28.7374 40.4144 28.6595 40.4299 28.5661C40.679 26.9936 41.0371 25.8571 41.333 25.1409C46.175 28.317 51.4841 26.3241 54.2243 24.3936C56.0615 24.8762 56.9334 25.7792 56.9957 25.8571C57.5095 26.402 57.8987 27.3517 58.0855 28.5817C58.1011 28.6128 58.1167 28.6284 58.1322 28.6595C58.1478 28.753 58.1789 28.8152 58.2101 28.8931C58.2412 29.0021 58.2879 29.0955 58.3502 29.1733C58.3969 29.2356 58.4436 29.2979 58.4903 29.3602C58.5682 29.438 58.646 29.5003 58.7394 29.5626C58.8017 29.6093 58.864 29.6404 58.9418 29.6716C59.0353 29.7338 59.1442 29.765 59.2688 29.7805C59.3155 29.7961 59.3466 29.8272 59.4089 29.8272C59.5335 29.8428 59.6736 29.8895 59.7981 29.9829C60.1874 30.2165 60.4521 30.7147 60.4521 31.2596Z" fill="#FFC6AB"/>
<path d="M98.2082 75.9435C97.6477 69.0619 91.7781 63.6594 84.8653 63.6594C84.4916 63.6594 84.1335 63.7995 83.8689 64.0486L82.1718 65.5433C78.7154 68.626 73.4997 68.6415 70.0277 65.5744L68.2684 64.033C67.9882 63.7995 67.6301 63.6594 67.272 63.6594C61.6047 63.6594 56.8094 67.1158 54.8477 72.0668H42.6725C40.664 67.1313 35.8064 63.6594 30.2637 63.6594C29.8901 63.6594 29.532 63.7995 29.2673 64.0486L27.5703 65.5433C24.1294 68.6104 18.8982 68.6415 15.4262 65.5744L13.6669 64.033C13.3866 63.7995 13.0285 63.6594 12.6704 63.6594C5.36842 63.6594 -0.516774 69.3733 -0.719175 76.6753L-0.999422 87.1379C-1.01499 87.5427 -0.859299 87.9475 -0.579051 88.2277C-0.283234 88.5236 0.105999 88.6948 0.5108 88.6948H42.5324C42.9372 88.6948 43.342 88.5236 43.6222 88.2277C43.9025 87.9319 44.0581 87.5271 44.0426 87.1223L43.6066 75.9435C43.5755 75.6633 43.5288 75.3675 43.4977 75.0872H54.0381C53.9602 75.601 53.8979 76.1304 53.8824 76.6753L53.6021 87.1379C53.5866 87.5427 53.7423 87.9475 54.0225 88.2277C54.3183 88.5236 54.7076 88.6948 55.1124 88.6948H97.1339C97.5387 88.6948 97.9435 88.5236 98.2238 88.2277C98.504 87.9319 98.6597 87.5271 98.6441 87.1223L98.2082 75.9435ZM2.06773 85.6744L2.30127 76.7531C2.45696 71.2883 6.70738 66.9756 12.1099 66.6954L13.4333 67.8475C18.0418 71.9111 24.9857 71.88 29.5787 67.8008L30.8242 66.6954C35.2459 66.9289 39.0137 70.0272 40.2281 74.1531V74.1686C40.4149 74.7914 40.5395 75.4609 40.5862 76.1304L40.9599 85.6744H2.06773ZM56.6693 85.6744L56.9028 76.7531C57.0585 71.2883 61.3089 66.9756 66.7115 66.6954L68.0349 67.8475C72.6434 71.9111 79.5873 71.88 84.1802 67.8008L85.4258 66.6954C90.5325 66.9756 94.7829 71.0392 95.1877 76.1304L95.5614 85.6744H56.6693Z" fill="black"/>
<path d="M40.96 85.6742H2.06787L2.30141 76.753C2.4571 71.2882 6.70752 66.9755 12.1101 66.6953L13.4335 67.8474C18.042 71.911 24.9859 71.8798 29.5788 67.8007L30.8244 66.6953C35.2461 66.9288 39.0138 70.0271 40.2282 74.153V74.1685C40.4151 74.7913 40.5396 75.4608 40.5863 76.1303L40.96 85.6742Z" fill="#8A8BC4"/>
<path d="M95.5611 85.6742H56.6689L56.9025 76.753C57.0582 71.2882 61.3086 66.9755 66.7111 66.6953L68.0345 67.8474C72.6431 71.911 79.587 71.8798 84.1799 67.8007L85.4254 66.6953C90.5322 66.9755 94.7826 71.0391 95.1874 76.1303L95.5611 85.6742Z" fill="#4BC8F1"/>
<path d="M88.5246 42.5628C87.9641 39.7136 86.2826 37.2537 83.8071 35.6189C81.3004 33.9686 78.1866 33.3769 75.2751 34.0153C72.1613 34.6848 69.7169 36.3351 68.7204 37.1136C66.8521 37.1136 65.7467 37.9387 65.1395 38.6861C63.9251 40.1496 63.567 42.594 64.0341 45.8947C62.555 45.4587 61.0136 45.194 59.4256 45.194C59.0519 45.194 58.6938 45.3342 58.4136 45.5833L56.374 47.4049C52.0613 51.2349 45.5533 51.2661 41.2095 47.4516L39.0765 45.5677C38.7962 45.3342 38.4381 45.194 38.08 45.194C36.7255 45.194 35.4177 45.3809 34.141 45.7078C34.1721 44.618 34.1254 43.5748 33.923 42.5628C33.3625 39.7136 31.6811 37.2537 29.2055 35.6189C26.6989 33.9686 23.585 33.3769 20.6736 34.0153C17.5597 34.6848 15.1153 36.3351 14.1189 37.1136C12.2506 37.1136 11.1451 37.9387 10.5379 38.6861C8.85646 40.7256 8.80975 44.5868 10.3511 50.1606C9.8996 50.8146 9.65049 51.593 9.65049 52.4182C9.65049 53.9751 10.5379 55.3452 11.8146 55.968C13.1069 60.3897 16.9681 64.6868 21.7011 64.6868C24.5815 64.6868 27.3217 62.8029 29.2678 60.2807C30.2643 58.9884 31.0583 57.5094 31.5409 56.0458C32.911 55.4542 33.8608 54.053 33.8608 52.4182C33.8608 51.702 33.6739 51.017 33.347 50.4253C33.4871 49.9427 33.6428 49.4445 33.7518 48.9774C34.9662 48.5414 36.2273 48.2768 37.5196 48.2301L39.2322 49.7091C41.9568 52.1068 45.3665 53.3056 48.7762 53.3056C52.217 53.3056 55.6578 52.0912 58.398 49.6624L59.9861 48.2301C61.6364 48.2923 63.2245 48.6971 64.7347 49.3666C64.797 49.6313 64.8748 49.896 64.9527 50.1606C64.5012 50.8146 64.252 51.593 64.252 52.4182C64.252 53.9751 65.1395 55.3452 66.4162 55.968C66.6342 56.6998 66.9144 57.4315 67.2725 58.1321C69.0163 61.6975 72.3481 64.6868 76.3027 64.6868C80.6621 64.6868 84.7257 60.3741 86.1425 56.0458C87.5126 55.4542 88.4623 54.053 88.4623 52.4182C88.4623 51.702 88.2755 51.017 87.9485 50.4253C88.7893 47.6073 89.0072 44.9605 88.5246 42.5628ZM30.2175 53.3212C30.202 53.3212 30.1708 53.3368 30.1553 53.3368C30.0463 53.3524 29.9684 53.3835 29.875 53.4146C29.766 53.4458 29.6726 53.4613 29.5948 53.5236C29.5169 53.5548 29.4547 53.617 29.3924 53.6793C29.3145 53.7416 29.2211 53.8039 29.1588 53.8817C29.0966 53.9596 29.0654 54.0374 29.0343 54.1153C28.972 54.2087 28.9253 54.3021 28.8942 54.3955C28.8786 54.4266 28.863 54.4422 28.863 54.4578C28.0378 57.7896 24.7372 61.6664 21.7011 61.6664C18.2448 61.6664 15.3022 57.9453 14.5548 54.4889C14.5393 54.4889 14.5393 54.4733 14.5393 54.4578C14.5081 54.3488 14.4458 54.2554 14.3991 54.1464C14.368 54.0841 14.3369 53.9907 14.2901 53.9284C14.2279 53.8506 14.15 53.7883 14.0877 53.726C14.0099 53.6637 13.9476 53.5859 13.8698 53.5392C13.7919 53.4925 13.7141 53.4769 13.6362 53.4458C13.5428 53.3991 13.4338 53.3524 13.3093 53.3368C13.3093 53.3368 13.2937 53.3212 13.2781 53.3212C12.9823 53.2745 12.6709 52.932 12.6709 52.4182C12.6709 52.1224 12.7955 51.8266 12.9823 51.6553C13.1069 51.5619 13.2159 51.5152 13.3716 51.5152C13.5584 51.5152 13.7452 51.4685 13.9165 51.4062C13.9788 51.3751 14.0255 51.3439 14.0722 51.3128C14.1812 51.2505 14.2901 51.1882 14.3836 51.0948C14.4303 51.0637 14.4614 51.017 14.4925 50.9703C14.586 50.8768 14.6638 50.7678 14.7105 50.6433C14.7417 50.5966 14.7572 50.5499 14.7728 50.4876C14.8039 50.4098 14.8351 50.3319 14.8506 50.2541C15.0375 49.1642 15.271 48.339 15.4734 47.763C19.4436 50.1918 23.7251 48.6193 26.0294 47.0468C27.3839 47.436 28.0223 48.0899 28.069 48.1522C28.4582 48.557 28.754 49.3043 28.9097 50.2541C28.9097 50.2852 28.9253 50.3163 28.9409 50.3475C28.9564 50.4253 28.9876 50.5032 29.0187 50.581L29.1588 50.8613C29.2055 50.9235 29.2522 50.9858 29.3145 51.0325C29.3924 51.1104 29.4702 51.1882 29.5481 51.2505C29.6259 51.2816 29.6882 51.3283 29.7505 51.3595C29.8595 51.4062 29.9684 51.4373 30.0774 51.4685C30.1241 51.484 30.1708 51.4996 30.2175 51.5152C30.2954 51.5152 30.3577 51.5463 30.4355 51.593C30.6223 51.7176 30.8403 51.9978 30.8403 52.4182C30.8403 52.9476 30.5134 53.2901 30.2175 53.3212ZM30.996 47.1091C30.7936 46.7354 30.5756 46.4084 30.311 46.1282C30.1708 45.9569 28.8007 44.4623 25.9671 43.9485C25.9516 43.9329 25.9204 43.9485 25.9049 43.9485C25.7959 43.9329 25.7024 43.9485 25.609 43.9485C25.5156 43.9641 25.4066 43.9485 25.3132 43.9796C25.2354 43.9952 25.1731 44.0419 25.0952 44.0731C24.9863 44.1198 24.8773 44.1665 24.7994 44.2287C24.7839 44.2443 24.7683 44.2443 24.7527 44.2599C24.5503 44.4 20.0197 47.9654 16.0806 44.4623C15.5513 44.0108 14.8039 43.9641 14.2279 44.3533C13.5117 44.8204 13.0135 45.7545 12.6398 46.751C11.9703 43.3257 12.2506 41.3484 12.8733 40.6011C12.9979 40.4454 13.3404 40.0406 14.477 40.1496C14.8973 40.1807 15.3022 40.0562 15.6135 39.7759C15.6447 39.7604 18.0579 37.6585 21.3119 36.9579C23.4293 36.5064 25.718 36.9423 27.5552 38.1411C29.3457 39.3244 30.5601 41.0993 30.9649 43.1545C31.214 44.3689 31.1984 45.7078 30.996 47.1091ZM84.8191 53.3212C84.8035 53.3212 84.7724 53.3368 84.7568 53.3368C84.6478 53.3524 84.57 53.3835 84.461 53.4146C84.3676 53.4458 84.2742 53.4613 84.1963 53.5236C84.1185 53.5548 84.0562 53.617 83.9939 53.6793C83.9005 53.7416 83.8227 53.8039 83.7604 53.8817C83.6981 53.9596 83.667 54.0374 83.6203 54.1153C83.5736 54.2087 83.5268 54.3021 83.4957 54.3955C83.4801 54.4266 83.4646 54.4422 83.4646 54.4578C82.6394 57.7896 79.3387 61.6664 76.3027 61.6664C72.8463 61.6664 69.9037 57.9453 69.1564 54.4889C69.1408 54.4889 69.1408 54.4733 69.1408 54.4578C69.1097 54.3488 69.0474 54.2554 69.0007 54.1464C68.954 54.0685 68.9384 53.9907 68.8917 53.9284C68.8294 53.8506 68.7516 53.7883 68.6737 53.726C68.6115 53.6637 68.5492 53.5859 68.4713 53.5392C68.3935 53.4925 68.3156 53.4769 68.2378 53.4458C68.1288 53.3991 68.0354 53.3524 67.9108 53.3368C67.9108 53.3368 67.8953 53.3212 67.8797 53.3212C67.5839 53.2745 67.2725 52.932 67.2725 52.4182C67.2725 52.1224 67.397 51.8266 67.5839 51.6553C67.7084 51.5619 67.8174 51.5152 67.9731 51.5152C68.1599 51.5152 68.3468 51.4685 68.518 51.4062C68.5803 51.3751 68.627 51.3439 68.6737 51.3128C68.7827 51.2505 68.8917 51.1882 68.9851 51.0948C69.0318 51.0637 69.063 51.017 69.0941 50.9703C69.1875 50.8768 69.2654 50.7678 69.3121 50.6433C69.3432 50.5966 69.3588 50.5499 69.3744 50.5032C69.4055 50.4098 69.4366 50.3319 69.4522 50.2541C69.639 49.1642 69.8726 48.339 70.075 47.763C74.0451 50.1918 78.3267 48.6193 80.631 47.0468C81.9855 47.436 82.6238 48.0899 82.6705 48.1522C83.0598 48.557 83.3556 49.3043 83.5113 50.2541C83.5113 50.2852 83.5268 50.3163 83.5424 50.3475C83.558 50.4253 83.5891 50.5032 83.6203 50.581C83.667 50.6744 83.7137 50.7679 83.7604 50.8613C83.8071 50.9235 83.8694 50.9858 83.9161 51.0325C83.9939 51.1104 84.0718 51.1882 84.1496 51.2505C84.2119 51.2816 84.2897 51.3283 84.352 51.3595C84.461 51.4062 84.57 51.4373 84.679 51.4685C84.7257 51.484 84.7724 51.4996 84.8191 51.5152C84.8969 51.5152 84.9592 51.5463 85.0371 51.593C85.2239 51.7176 85.4419 51.9978 85.4419 52.4182C85.4419 52.932 85.1149 53.2901 84.8191 53.3212ZM85.5976 47.1091C85.3952 46.751 85.1772 46.4084 84.9125 46.1282C84.7724 45.9569 83.4023 44.4623 80.5687 43.9485C80.5531 43.9329 80.522 43.9485 80.5064 43.9485C80.3974 43.9329 80.304 43.9485 80.2106 43.9485C80.1172 43.9641 80.0082 43.9485 79.9148 43.9796C79.8369 43.9952 79.7747 44.0419 79.6968 44.0731C79.5878 44.1198 79.4788 44.1665 79.401 44.2287C79.3854 44.2443 79.3698 44.2443 79.3543 44.2599C79.1519 44.4 74.6212 47.9654 70.6822 44.4623C70.1528 44.0108 69.4055 43.9641 68.8294 44.3533C68.1132 44.8204 67.615 45.7545 67.2414 46.751C66.5719 43.3257 66.8521 41.3484 67.4749 40.6011C67.5994 40.4454 67.942 40.0406 69.0785 40.1496C69.4989 40.1807 69.9037 40.0562 70.2151 39.7759C70.2462 39.7604 72.6595 37.6585 75.9135 36.9579C78.0309 36.5064 80.3196 36.9423 82.1567 38.1411C83.9472 39.3244 85.1616 41.0993 85.5664 43.1545C85.8155 44.3689 85.8 45.7078 85.5976 47.1091Z" fill="black"/>
<path d="M85.5966 47.1088C85.3942 46.7508 85.1763 46.4082 84.9116 46.128C84.7715 45.9567 83.4014 44.4621 80.5677 43.9483C80.5522 43.9327 80.521 43.9483 80.5055 43.9483C80.3965 43.9327 80.3031 43.9483 80.2097 43.9483C80.1162 43.9638 80.0073 43.9483 79.9138 43.9794C79.836 43.995 79.7737 44.0417 79.6959 44.0728C79.5869 44.1195 79.4779 44.1662 79.4 44.2285C79.3845 44.2441 79.3689 44.2441 79.3533 44.2597C79.1509 44.3998 74.6203 47.9652 70.6812 44.4621C70.1519 44.0106 69.4046 43.9638 68.8285 44.3531C68.1123 44.8202 67.6141 45.7543 67.2404 46.7508C66.5709 43.3255 66.8512 41.3482 67.474 40.6009C67.5985 40.4452 67.941 40.0404 69.0776 40.1494C69.498 40.1805 69.9028 40.056 70.2142 39.7757C70.2453 39.7601 72.6585 37.6583 75.9125 36.9577C78.03 36.5061 80.3186 36.9421 82.1558 38.1409C83.9463 39.3242 85.1607 41.0991 85.5655 43.1542C85.8146 44.3686 85.799 45.7076 85.5966 47.1088Z" fill="#617586"/>
<path d="M30.9951 47.1088C30.7927 46.7352 30.5747 46.4082 30.31 46.128C30.1699 45.9567 28.7998 44.4621 25.9662 43.9483C25.9506 43.9327 25.9195 43.9483 25.9039 43.9483C25.7949 43.9327 25.7015 43.9483 25.6081 43.9483C25.5147 43.9638 25.4057 43.9483 25.3123 43.9794C25.2344 43.995 25.1722 44.0417 25.0943 44.0728C24.9853 44.1195 24.8763 44.1662 24.7985 44.2285C24.7829 44.2441 24.7674 44.2441 24.7518 44.2597C24.5494 44.3998 20.0187 47.9652 16.0797 44.4621C15.5503 44.0106 14.803 43.9638 14.2269 44.3531C13.5107 44.8202 13.0125 45.7543 12.6389 46.7508C11.9694 43.3255 12.2496 41.3482 12.8724 40.6009C12.997 40.4452 13.3395 40.0404 14.476 40.1494C14.8964 40.1805 15.3012 40.056 15.6126 39.7757C15.6437 39.7601 18.057 37.6583 21.311 36.9577C23.4284 36.5061 25.7171 36.9421 27.5543 38.1409C29.3447 39.3242 30.5591 41.0991 30.9639 43.1542C31.213 44.3686 31.1975 45.7076 30.9951 47.1088Z" fill="#617586"/>
<path d="M30.8403 52.4179C30.8403 52.9472 30.5133 53.2897 30.2175 53.3209C30.2019 53.3209 30.1708 53.3364 30.1552 53.3364C30.0462 53.352 29.9684 53.3832 29.875 53.4143C29.766 53.4454 29.6726 53.461 29.5947 53.5233C29.5169 53.5544 29.4546 53.6167 29.3923 53.679C29.3145 53.7412 29.2211 53.8035 29.1588 53.8814C29.0965 53.9592 29.0654 54.0371 29.0342 54.1149C28.972 54.2083 28.9253 54.3017 28.8941 54.3952C28.8785 54.4263 28.863 54.4419 28.863 54.4574C28.0378 57.7893 24.7371 61.666 21.7011 61.666C18.2447 61.666 15.3021 57.945 14.5548 54.4886C14.5392 54.4886 14.5392 54.473 14.5392 54.4574C14.5081 54.3484 14.4458 54.255 14.3991 54.146C14.368 54.0838 14.3368 53.9904 14.2901 53.9281C14.2278 53.8502 14.15 53.788 14.0877 53.7257C14.0099 53.6634 13.9476 53.5856 13.8697 53.5388C13.7919 53.4921 13.714 53.4766 13.6362 53.4454C13.5428 53.3987 13.4338 53.352 13.3092 53.3364C13.3092 53.3364 13.2937 53.3209 13.2781 53.3209C12.9823 53.2742 12.6709 52.9316 12.6709 52.4179C12.6709 52.122 12.7955 51.8262 12.9823 51.655C13.1068 51.5615 13.2158 51.5148 13.3715 51.5148C13.5583 51.5148 13.7452 51.4681 13.9164 51.4059C13.9787 51.3747 14.0254 51.3436 14.0721 51.3124C14.1811 51.2502 14.2901 51.1879 14.3835 51.0945C14.4302 51.0633 14.4614 51.0166 14.4925 50.9699C14.5859 50.8765 14.6638 50.7675 14.7105 50.643C14.7416 50.5962 14.7572 50.5495 14.7728 50.4873C14.8039 50.4094 14.835 50.3316 14.8506 50.2537C15.0374 49.1639 15.271 48.3387 15.4734 47.7626C19.4435 50.1914 23.7251 48.6189 26.0294 47.0464C27.3839 47.4357 28.0222 48.0896 28.0689 48.1519C28.4582 48.5567 28.754 49.304 28.9097 50.2537C28.9097 50.2849 28.9253 50.316 28.9408 50.3471C28.9564 50.425 28.9875 50.5028 29.0187 50.5807L29.1588 50.8609C29.2055 50.9232 29.2522 50.9855 29.3145 51.0322C29.3923 51.11 29.4702 51.1879 29.548 51.2502C29.6259 51.2813 29.6881 51.328 29.7504 51.3591C29.8594 51.4059 29.9684 51.437 30.0774 51.4681C30.1241 51.4837 30.1708 51.4993 30.2175 51.5148C30.2953 51.5148 30.3576 51.546 30.4355 51.5927C30.6223 51.7172 30.8403 51.9975 30.8403 52.4179Z" fill="#FFC6AB"/>
<path d="M85.4418 52.4179C85.4418 52.9316 85.1149 53.2897 84.8191 53.3209C84.8035 53.3209 84.7724 53.3364 84.7568 53.3364C84.6478 53.352 84.57 53.3832 84.461 53.4143C84.3676 53.4454 84.2741 53.461 84.1963 53.5233C84.1185 53.5544 84.0562 53.6167 83.9939 53.679C83.9005 53.7412 83.8226 53.8035 83.7604 53.8814C83.6981 53.9592 83.6669 54.0371 83.6202 54.1149C83.5735 54.2083 83.5268 54.3017 83.4957 54.3952C83.4801 54.4263 83.4645 54.4419 83.4645 54.4574C82.6394 57.7893 79.3387 61.666 76.3027 61.666C72.8463 61.666 69.9037 57.945 69.1564 54.4886C69.1408 54.4886 69.1408 54.473 69.1408 54.4574C69.1096 54.3484 69.0474 54.255 69.0007 54.146C68.9539 54.0682 68.9384 53.9904 68.8917 53.9281C68.8294 53.8502 68.7515 53.788 68.6737 53.7257C68.6114 53.6634 68.5491 53.5856 68.4713 53.5388C68.3935 53.4921 68.3156 53.4766 68.2378 53.4454C68.1288 53.3987 68.0354 53.352 67.9108 53.3364C67.9108 53.3364 67.8952 53.3209 67.8797 53.3209C67.5839 53.2742 67.2725 52.9316 67.2725 52.4179C67.2725 52.122 67.397 51.8262 67.5838 51.655C67.7084 51.5615 67.8174 51.5148 67.9731 51.5148C68.1599 51.5148 68.3467 51.4681 68.518 51.4059C68.5803 51.3747 68.627 51.3436 68.6737 51.3124C68.7827 51.2502 68.8917 51.1879 68.9851 51.0945C69.0318 51.0633 69.0629 51.0166 69.0941 50.9699C69.1875 50.8765 69.2653 50.7675 69.312 50.643C69.3432 50.5962 69.3588 50.5495 69.3743 50.5028C69.4055 50.4094 69.4366 50.3316 69.4522 50.2537C69.639 49.1639 69.8725 48.3387 70.0749 47.7626C74.0451 50.1914 78.3267 48.6189 80.6309 47.0464C81.9855 47.4357 82.6238 48.0896 82.6705 48.1519C83.0597 48.5567 83.3556 49.304 83.5112 50.2537C83.5112 50.2849 83.5268 50.316 83.5424 50.3471C83.558 50.425 83.5891 50.5028 83.6202 50.5807C83.6669 50.6741 83.7136 50.7675 83.7604 50.8609C83.8071 50.9232 83.8693 50.9855 83.9161 51.0322C83.9939 51.11 84.0717 51.1879 84.1496 51.2502C84.2119 51.2813 84.2897 51.328 84.352 51.3591C84.461 51.4059 84.57 51.437 84.6789 51.4681C84.7257 51.4837 84.7724 51.4993 84.8191 51.5148C84.8969 51.5148 84.9592 51.546 85.037 51.5927C85.2239 51.7172 85.4418 51.9975 85.4418 52.4179Z" fill="#FFC6AB"/>
<path d="M67.2713 58.132C68.1432 60.2806 68.3923 62.398 67.2713 63.6591C61.604 63.6591 56.8087 67.1155 54.847 72.0665H42.6718C40.6633 67.1311 35.8057 63.6591 30.263 63.6591C29.8894 63.6591 29.5313 63.7992 29.2666 64.0483C28.4259 62.8495 28.4881 61.5884 29.2666 60.2806C30.263 58.9883 31.0571 57.5092 31.5397 56.0457C32.9098 55.4541 33.8596 54.0528 33.8596 52.4181C33.8596 51.7019 33.6727 51.0168 33.3458 50.4252C33.4859 49.9425 33.6416 49.4443 33.7506 48.9772C34.965 48.5413 36.2261 48.2766 37.5183 48.2299L39.231 49.709C41.9556 52.1067 45.3653 53.3055 48.7749 53.3055C52.2158 53.3055 55.6566 52.0911 58.3968 49.6623L59.9848 48.2299C61.6352 48.2922 63.2233 48.697 64.7335 49.3665C64.7958 49.6312 64.8736 49.8958 64.9515 50.1605C64.4999 50.8144 64.2508 51.5929 64.2508 52.4181C64.2508 53.975 65.1383 55.3451 66.415 55.9679C66.6329 56.6996 66.9132 57.4314 67.2713 58.132Z" fill="#FAA951"/>
</g>
</g>
<defs>
<clipPath id="clip0_1_217">
<rect width="102.997" height="102.997" fill="white"/>
</clipPath>
<clipPath id="clip1_1_217">
<rect width="99.6436" height="99.6436" fill="white" transform="translate(-1 -1)"/>
</clipPath>
</defs>
</svg>
